<svg width="943" height="634" viewBox="0 0 943 634" fill="none" xmlns="http://www.w3.org/2000/svg">
<path d="M172.75 50.14C222.77 24.7164 277.078 8.80964 332.91 3.23C358.62 0.720003 409.27 -3.77 471.12 11.74C512.44 22.12 513.85 24.82 548.61 40.11C607.44 66 691 51.88 740.39 43.64C789.78 35.4 859.23 48.35 889.82 84.82C920.41 121.29 992.18 309.55 889.82 474.27C825.35 578 753.4 625.71 682.23 632.72C665.95 634.33 609.47 637.96 559.23 606.05C540.02 593.86 542.14 589.38 515.75 570.05C501.89 559.89 455.9 526.82 400.35 516.95C360.09 509.79 332.89 518.05 302.35 523.07C278.69 526.96 130.25 551.37 57.24 489.37C-24.16 420.25 -12.25 252.57 59.24 148.27C95.82 94.88 143 65.35 172.75 50.14Z" fill="black"/>
</svg>
