<svg xmlns="http://www.w3.org/2000/svg" width="660" height="940" viewBox="0 0 660 940">
  <defs>
    <style>
      .cls-1 {
        fill: #8B847E;
      }

      .cls-2, .cls-3, .cls-4 {
        fill: none;
      }

      .cls-2, .cls-3 {
        stroke: #fff;
        stroke-linecap: round;
        stroke-linejoin: round;
      }

      .cls-2 {
        stroke-width: 22px;
      }

      .cls-3 {
        stroke-width: 15px;
      }
    </style>
  </defs>
  <title>logo</title>
  <g id="Слой_3" data-name="Слой 3">
    <rect class="cls-1" width="660" height="940" rx="20"/>
  </g>
  <g id="GLASS">
    <rect class="cls-2" x="34.91" y="33.3" width="277.53" height="156.51" rx="30"/>
    <line class="cls-3" x1="34.91" y1="217.47" x2="312.45" y2="217.47"/>
    <line class="cls-2" x1="312.45" y1="251.85" x2="312.45" y2="222.19"/>
    <line class="cls-2" x1="183.34" y1="252.54" x2="312.45" y2="252.54"/>
    <line class="cls-2" x1="183.34" y1="289.85" x2="183.34" y2="253.23"/>
    <line class="cls-2" x1="148.28" y1="244.15" x2="34.91" y2="244.15"/>
    <line class="cls-2" x1="34.91" y1="477.51" x2="34.91" y2="244.15"/>
    <line class="cls-2" x1="126.15" y1="477.51" x2="34.91" y2="477.51"/>
    <line class="cls-2" x1="183.34" y1="395.81" x2="34.91" y2="395.81"/>
    <line class="cls-2" x1="242.74" y1="322.28" x2="34.91" y2="322.28"/>
    <line class="cls-2" x1="312.45" y1="311.28" x2="133.13" y2="560.52"/>
    <line class="cls-2" x1="312.45" y1="673.83" x2="312.45" y2="311.28"/>
    <line class="cls-2" x1="133.13" y1="560.52" x2="312.45" y2="673.83"/>
    <line class="cls-2" x1="71.34" y1="578.91" x2="71.34" y2="733.64"/>
    <line class="cls-2" x1="34.91" y1="735.64" x2="34.91" y2="509.3"/>
    <line class="cls-2" x1="71.34" y1="578.91" x2="316.45" y2="733.64"/>
    <path class="cls-2" d="M87,620.58" transform="translate(0.45 -0.3)"/>
    <rect class="cls-2" x="34.91" y="766.85" width="277.53" height="143.68" rx="30"/>
    <line class="cls-2" x1="71.34" y1="733.64" x2="316.45" y2="733.64"/>
  </g>
  <g id="pro">
    <rect class="cls-2" x="353.9" y="33.3" width="273.7" height="323.19" rx="30"/>
    <path class="cls-2" d="M399.6,660.49H607.15a19.84,19.84,0,0,1,20,19.68v211a19.84,19.84,0,0,1-20,19.68H373.45a19.84,19.84,0,0,1-20-19.68V736.61" transform="translate(0.45 -0.3)"/>
    <path class="cls-2" d="M387.43,653.47" transform="translate(0.45 -0.3)"/>
    <line class="cls-2" x1="353.9" y1="693.1" x2="353.9" y2="603.21"/>
    <path class="cls-2" d="M353.45,631.77v-221c0-12.89,9-23.33,20.15-23.33H607c11.12,0,20.15,10.44,20.15,23.33v189a21.68,21.68,0,0,1-21.63,21.93L553,621.2H407.43a20.23,20.23,0,0,1-20-20.45V437.63a20.22,20.22,0,0,1,20-20.45H573.51a20.19,20.19,0,0,1,20,20.41V562.07" transform="translate(0.45 -0.3)"/>
    <path class="cls-2" d="M411.17,77.34c.38,0,.76,0,1.15,0h141c9.46,0,17.13,8.1,17.13,18.09V294.46" transform="translate(0.45 -0.3)"/>
    <path class="cls-2" d="M571.75,699.4V851.17c0,11-7.3,20-16.31,20l-135.73,0A20.11,20.11,0,0,1,399.6,851V719.52a20.12,20.12,0,0,1,20.12-20.12h65.95" transform="translate(0.45 -0.3)"/>
    <path class="cls-2" d="M86.12,145.21a2.63,2.63,0,0,1,0-.49V84.61c0-4,6.68-7.31,14.93-7.31H265.28" transform="translate(0.45 -0.3)"/>
    <path class="cls-2" d="M267.74,866.14c-.41,0-.84,0-1.26,0H94.39c-9,0-7.3-3.24-7.3-7.23V804.11" transform="translate(0.45 -0.3)"/>
    <line class="cls-2" x1="411.62" y1="206.89" x2="411.62" y2="356.49"/>
    <path class="cls-2" d="M391.09,866.17" transform="translate(0.45 -0.3)"/>
    <rect class="cls-4" x="513.24" y="795.13" width="137.19" height="137.19"/>
  </g>
  <g id="Слой_5" data-name="Слой 5">
    <line class="cls-3" x1="154.06" y1="447.6" x2="65.21" y2="447.6"/>
    <line class="cls-3" x1="216.19" y1="495.89" x2="176.36" y2="551.72"/>
    <line class="cls-3" x1="228.96" y1="586.96" x2="176.36" y2="551.72"/>
    <line class="cls-3" x1="221.06" y1="706.57" x2="99.37" y2="629.47"/>
    <line class="cls-3" x1="99.37" y1="706.57" x2="99.37" y2="629.47"/>
  </g>
</svg>
