<svg id="Слой_2" data-name="Слой 2" xmlns="http://www.w3.org/2000/svg" width="334.48" height="112.34" viewBox="0 0 334.48 112.34">
  <title>12Монтажная область 1</title>
  <path d="M101.36,24.85s-4.94,7.49-15.15,15.32S63.46,50.1,55.91,63.66,31.4,91.06,42,99.06c9.47,7.18,42.21,4.43,58,3.58,13.05-.7,73.93,2.31,94.66-2.1,27.23-5.79,93.26,3.29,105.17-.11s24.64-9.86,24.64-21.77c0-18.68-14.07-27.51-25.19-39.51a101.62,101.62,0,0,0-23.62-19.41c-14.29-8.85-43.57-7.48-43.57-7.48s-100.43-5.11-111.32,0A92.34,92.34,0,0,0,101.36,24.85Z"/>
</svg>
