<svg width="243" height="163" viewBox="0 0 390 230" fill="none" xmlns="http://www.w3.org/2000/svg">
<path d="M 59.829 17.3254 C 77.1526 8.5405 95.9612 3.0441 
                                115.2977 1.1161 C 124.202 0.2488 141.7436 -1.3027 163.1643 4.0566 C 177.4752 
                                7.6433 177.9631 8.5763 190.0013 13.8596 C 210.3763 22.8055 239.3167 17.9265 
                                256.4218 15.0793 C 273.5268 12.2321 297.5791 16.7069 308.1738 29.3086 C 318.7686 
                                41.9105 343.6245 106.9617 308.1738 163.8793 C 285.846 199.7224 260.9268 216.2079 
                                236.2792 218.6298 C 230.6398 219.1862 211.0792 220.4402 193.6798 209.414 C 187.027
                                 205.2019 187.7608 203.6536 178.6216 196.9753 C 173.8209 193.4634 157.8931 182.0367 
                                 138.6538 178.627 C 124.7111 176.1527 115.2907 179.0074 104.7137 180.7411 C 96.5195 
                                 182.0851 45.1099 190.5201 19.8241 169.0967 C -8.3674 145.2125 -4.2426 87.2729 
                                 20.5168 51.2331 C 33.1856 32.7847 49.5256 22.5809 59.829 17.3254 Z"
fill="black"/>
</svg>
