<svg id="Слой_2" data-name="Слой 2" xmlns="http://www.w3.org/2000/svg" viewBox="0 0 560.58 760.32"><defs><style>.cls-1{fill:#ceecf2;}.cls-2{fill:#b3b3b3;}</style></defs><title>pointer</title><path class="cls-1" d="M329.82,81.23C175,81.23,49.53,206.36,49.53,360.7S174.85,640,329.5,640.17h.32c152.52,0,276.59-121.47,280.21-272.68v0c.05-2.24.08-4.5.08-6.76C610.11,206.36,484.62,81.23,329.82,81.23ZM478.28,360.71A149.29,149.29,0,0,1,329.5,510H329A149.29,149.29,0,0,1,179.7,360.71h0a149.29,149.29,0,1,1,298.58,0Z" transform="translate(-49.53 -81.23)"/><path class="cls-1" d="M330.5,510V841.55C22.94,520.87,50.53,360.7,50.53,360.7H180.7A149.29,149.29,0,0,0,330,510Z" transform="translate(-49.53 -81.23)"/><path class="cls-1" d="M328.5,841.55V510A149.29,149.29,0,0,0,477.28,360.71H608.47a56.86,56.86,0,0,1,.56,6.76v0C610.29,401,599.51,559,328.5,841.55Z" transform="translate(-49.53 -81.23)"/><path class="cls-2" d="M974.06,855.85Z" transform="translate(-49.53 -81.23)"/><path class="cls-1" d="M330,184.19a176.51,176.51,0,0,0,0,353h.51a176.51,176.51,0,0,0-.51-353ZM479.28,360.71A149.29,149.29,0,0,1,330.5,510H330A149.29,149.29,0,0,1,180.7,360.71h0a149.29,149.29,0,1,1,298.58,0Z" transform="translate(-49.53 -81.23)"/></svg>