<svg width="86" height="86" viewBox="0 0 86 86" fill="none" xmlns="http://www.w3.org/2000/svg">
<path d="M43 86C66.7482 86 86 66.7482 86 43C86 19.2518 66.7482 0 43 0C19.2518 0 0 19.2518 0 43C0 66.7482 19.2518 86 43 86Z" fill="#7255D0"/>
<path fill-rule="evenodd" clip-rule="evenodd" d="M46.3322 69.468C45.9659 71.4771 44.2104 73 42.1001 73C39.7239 73 37.7976 71.0693 37.7976 68.6877C37.7976 66.3061 39.7239 64.3754 42.1001 64.3754C43.7665 64.3754 45.2117 65.325 45.9263 66.7138C57.3065 65.1044 63.7885 60.0351 65.3722 51.5058C64.697 51.8673 63.7681 51.274 62.5856 49.7257C62.5856 49.7257 58.076 60.3735 50.9462 62.1223C61.3772 53.2832 54.3965 39.4549 52.837 36.5883C51.2775 33.7217 50.6779 32.5735 49.9482 37.1872C48.256 44.5626 31.4838 40.2415 29.0606 46.8211C27.4452 51.2075 29.4207 56.4685 34.9872 62.6042C28.9544 60.7577 24.8588 56.7688 22.7003 50.6376C20.0546 54.4928 15.0952 51.4611 15 49.0544C15 45.0043 15 41.0805 15 37.7208C15.0025 35.6933 16.1824 34.4294 18.5397 33.9291C23.6557 8.5959 59.9718 6.4598 66.2674 33.0362C69.2291 33.0362 70.8066 34.2203 71 36.5883L70.7463 47.6391C70.775 49.3916 69.9305 50.6805 68.2127 51.5058C65.925 61.5215 58.6315 67.5089 46.3322 69.468ZM22.8532 35.5605C27.1422 26.1059 33.8577 21.5668 43 21.943C55.5277 22.4066 60.9902 31.5373 62.1626 35.5605L62.7049 35.0212C59.4981 23.6933 52.7767 18.0294 42.5408 18.0294C32.3049 18.0294 25.5835 23.6933 22.3767 35.0212L22.8532 35.5605Z" fill="#dee1e2"/>
</svg>
