<svg xmlns="http://www.w3.org/2000/svg" xmlns:xlink="http://www.w3.org/1999/xlink" width="1084.91" height="497.36" viewBox="0 0 1084.91 497.36">
  <defs>
    <style>
      .cls-bordder-1, .cls-bordder-10, .cls-bordder-11, .cls-bordder-12, .cls-bordder-13, .cls-bordder-14, .cls-bordder-2, .cls-bordder-3, .cls-bordder-4, .cls-bordder-5, .cls-bordder-6, .cls-bordder-7, .cls-bordder-8, .cls-bordder-9 {
        fill: none;
      }

      .cls-bordder-1, .cls-bordder-10, .cls-bordder-11, .cls-bordder-12, .cls-bordder-13, .cls-bordder-14, .cls-bordder-15, .cls-bordder-16, .cls-bordder-2, .cls-bordder-3, .cls-bordder-4, .cls-bordder-5, .cls-bordder-6, .cls-bordder-7, .cls-bordder-8, .cls-bordder-9 {
        stroke-miterlimit: 10;
      }

      .cls-bordder-1 {
        stroke-width: 4px;
        stroke: url(#border_bg_352);
      }

      .cls-bordder-2 {
        stroke-width: 4.25px;
        stroke: url(#border_bg_3798);
      }

      .cls-bordder-3 {
        stroke-width: 4.5px;
        stroke: url(#border_bg_3797);
      }

      .cls-bordder-4 {
        stroke-width: 4.75px;
        stroke: url(#border_bg_3796);
      }

      .cls-bordder-5 {
        stroke-width: 5px;
        stroke: url(#border_bg_3795);
      }

      .cls-bordder-6 {
        stroke-width: 5.25px;
        stroke: url(#border_bg_3794);
      }

      .cls-bordder-7 {
        stroke-width: 5.5px;
        stroke: url(#border_bg_3793);
      }

      .cls-bordder-8 {
        stroke-width: 5.75px;
        stroke: url(#border_bg_3792);
      }

      .cls-bordder-9 {
        stroke-width: 6px;
        stroke: url(#border_bg_3791);
      }

      .cls-bordder-10 {
        stroke-width: 6.25px;
        stroke: url(#border_bg_3790);
      }

      .cls-bordder-11 {
        stroke-width: 6.5px;
        stroke: url(#border_bg_3789);
      }

      .cls-bordder-12 {
        stroke-width: 6.75px;
        stroke: url(#border_bg_3788);
      }

      .cls-bordder-13 {
        stroke-width: 7px;
        stroke: url(#border_bg_46);
      }

      .cls-bordder-14 {
        stroke-width: 3px;
        stroke: url(#border_bg_46-2);
      }

      .cls-bordder-15, .cls-bordder-16 {
        stroke: #9b8dc7;
      }

      .cls-bordder-15 {
        fill: url(#border_bg_2013);
      }

      .cls-bordder-16 {
        fill: url(#border_bg_1981);
      }
    </style>
    <linearGradient id="border_bg_352" data-name="border_bg 352" x1="448.13" y1="452.36" x2="669.26" y2="452.36" gradientTransform="translate(105.69 -146.01) rotate(16.52)" gradientUnits="userSpaceOnUse">
      <stop offset="0" stop-color="#23202d" stop-opacity="0"/>
      <stop offset="0.08" stop-color="#3e3f5e"/>
      <stop offset="1" stop-color="#3e3f5e"/>
    </linearGradient>
    <linearGradient id="border_bg_3798" data-name="border_bg 3798" x1="420.99" y1="442.36" x2="695.69" y2="442.36" gradientTransform="translate(105.69 -146.01) rotate(16.52)" gradientUnits="userSpaceOnUse">
      <stop offset="0" stop-color="#292636" stop-opacity="0.08"/>
      <stop offset="0.08" stop-color="#424364"/>
      <stop offset="0.6" stop-color="#454669"/>
      <stop offset="1" stop-color="#454669"/>
    </linearGradient>
    <linearGradient id="border_bg_3797" data-name="border_bg 3797" x1="388.29" y1="432.32" x2="727.64" y2="432.32" gradientTransform="translate(105.69 -146.01) rotate(16.52)" gradientUnits="userSpaceOnUse">
      <stop offset="0" stop-color="#2f2c40" stop-opacity="0.17"/>
      <stop offset="0.08" stop-color="#46476a"/>
      <stop offset="0.6" stop-color="#4c4d73"/>
      <stop offset="1" stop-color="#4c4d73"/>
    </linearGradient>
    <linearGradient id="border_bg_3796" data-name="border_bg 3796" x1="355.41" y1="422.26" x2="759.77" y2="422.26" gradientTransform="translate(105.69 -146.01) rotate(16.52)" gradientUnits="userSpaceOnUse">
      <stop offset="0" stop-color="#343349" stop-opacity="0.25"/>
      <stop offset="0.08" stop-color="#4a4b70"/>
      <stop offset="0.6" stop-color="#53547e"/>
      <stop offset="1" stop-color="#53557e"/>
    </linearGradient>
    <linearGradient id="border_bg_3795" data-name="border_bg 3795" x1="322.41" y1="412.19" x2="792.02" y2="412.19" gradientTransform="translate(105.69 -146.01) rotate(16.52)" gradientUnits="userSpaceOnUse">
      <stop offset="0" stop-color="#3a3953" stop-opacity="0.33"/>
      <stop offset="0.08" stop-color="#4e4f76"/>
      <stop offset="0.6" stop-color="#5a5b88"/>
      <stop offset="1" stop-color="#5a5c89"/>
    </linearGradient>
    <linearGradient id="border_bg_3794" data-name="border_bg 3794" x1="289.32" y1="402.12" x2="824.35" y2="402.12" gradientTransform="translate(105.69 -146.01) rotate(16.52)" gradientUnits="userSpaceOnUse">
      <stop offset="0" stop-color="#403f5c" stop-opacity="0.42"/>
      <stop offset="0.08" stop-color="#52537c"/>
      <stop offset="0.6" stop-color="#616293"/>
      <stop offset="1" stop-color="#616393"/>
    </linearGradient>
    <linearGradient id="border_bg_3793" data-name="border_bg 3793" x1="256.18" y1="392.05" x2="856.74" y2="392.05" gradientTransform="translate(105.69 -146.01) rotate(16.52)" gradientUnits="userSpaceOnUse">
      <stop offset="0" stop-color="#464566" stop-opacity="0.5"/>
      <stop offset="0.08" stop-color="#565782"/>
      <stop offset="0.6" stop-color="#686a9d"/>
      <stop offset="1" stop-color="#686a9e"/>
    </linearGradient>
    <linearGradient id="border_bg_3792" data-name="border_bg 3792" x1="223.01" y1="381.98" x2="889.17" y2="381.98" gradientTransform="translate(105.69 -146.01) rotate(16.52)" gradientUnits="userSpaceOnUse">
      <stop offset="0" stop-color="#4b4b6f" stop-opacity="0.58"/>
      <stop offset="0.08" stop-color="#595b88"/>
      <stop offset="0.6" stop-color="#6e71a7"/>
      <stop offset="1" stop-color="#6f71a9"/>
    </linearGradient>
    <linearGradient id="border_bg_3791" data-name="border_bg 3791" x1="189.8" y1="371.91" x2="921.63" y2="371.91" gradientTransform="translate(105.69 -146.01) rotate(16.52)" gradientUnits="userSpaceOnUse">
      <stop offset="0" stop-color="#515178" stop-opacity="0.67"/>
      <stop offset="0.08" stop-color="#5d5f8e"/>
      <stop offset="0.6" stop-color="#7578b2"/>
      <stop offset="1" stop-color="#7678b3"/>
    </linearGradient>
    <linearGradient id="border_bg_3790" data-name="border_bg 3790" x1="156.52" y1="361.81" x2="954.06" y2="361.81" gradientTransform="translate(105.69 -146.01) rotate(16.52)" gradientUnits="userSpaceOnUse">
      <stop offset="0" stop-color="#575782" stop-opacity="0.75"/>
      <stop offset="0.08" stop-color="#616394"/>
      <stop offset="0.6" stop-color="#7c7fbc"/>
      <stop offset="1" stop-color="#7d7fbe"/>
    </linearGradient>
    <linearGradient id="border_bg_3789" data-name="border_bg 3789" x1="123.29" y1="351.75" x2="986.56" y2="351.75" gradientTransform="translate(105.69 -146.01) rotate(16.52)" gradientUnits="userSpaceOnUse">
      <stop offset="0" stop-color="#5c5e8b" stop-opacity="0.83"/>
      <stop offset="0.08" stop-color="#65679a"/>
      <stop offset="0.6" stop-color="#8386c7"/>
      <stop offset="1" stop-color="#8487c9"/>
    </linearGradient>
    <linearGradient id="border_bg_3788" data-name="border_bg 3788" x1="90.05" y1="341.69" x2="1019.09" y2="341.69" gradientTransform="translate(105.69 -146.01) rotate(16.52)" gradientUnits="userSpaceOnUse">
      <stop offset="0" stop-color="#626495" stop-opacity="0.92"/>
      <stop offset="0.08" stop-color="#696ba0"/>
      <stop offset="0.6" stop-color="#8a8dd1"/>
      <stop offset="1" stop-color="#8b8ed3"/>
    </linearGradient>
    <linearGradient id="border_bg_46" data-name="border_bg 46" x1="56.8" y1="331.63" x2="1051.62" y2="331.63" gradientTransform="translate(105.69 -146.01) rotate(16.52)" gradientUnits="userSpaceOnUse">
      <stop offset="0" stop-color="#686a9e"/>
      <stop offset="0.6" stop-color="#9194dc"/>
      <stop offset="1" stop-color="#9295de"/>
    </linearGradient>
    <linearGradient id="border_bg_46-2" x1="15.69" y1="183.51" x2="1006.5" y2="183.51" xlink:href="#border_bg_46"/>
    <radialGradient id="border_bg_2013" data-name="border_bg 2013" cx="542.7" cy="182.34" r="379.38" gradientUnits="userSpaceOnUse">
      <stop offset="0" stop-color="#c7a8a1" stop-opacity="0.3"/>
      <stop offset="1" stop-color="#fff" stop-opacity="0"/>
    </radialGradient>
    <radialGradient id="border_bg_1981" data-name="border_bg 1981" cx="543.09" cy="322.11" r="379.38" gradientUnits="userSpaceOnUse">
      <stop offset="0" stop-color="#fff" stop-opacity="0"/>
      <stop offset="0.33" stop-color="#fdfcfe" stop-opacity="0.01"/>
      <stop offset="0.51" stop-color="#f5f3f9" stop-opacity="0.05"/>
      <stop offset="0.66" stop-color="#e7e3f1" stop-opacity="0.12"/>
      <stop offset="0.78" stop-color="#d3cde6" stop-opacity="0.22"/>
      <stop offset="0.9" stop-color="#bab0d8" stop-opacity="0.35"/>
      <stop offset="1" stop-color="#9b8dc7" stop-opacity="0.5"/>
    </radialGradient>
  </defs>

  <g id="Hall">
    <g>
      <path class="cls-bordder-1" d="M620,447.79l-75.26,19.1c-19.88,5-43.91,6.78-53.67,3.89l-85.82-25.46,91.62-23.25c10.83-2.75,23.93-3.71,29.25-2.13Z"/>
      <path class="cls-bordder-2" d="M533,401,655.89,437.4c1.56.47-11.29,4.42-14.47,5.23l-81.67,20.72c-9.39,2.39-31.82,7-40.92,7.63-11.74,1.37-23,1.37-28.89-.38L374.46,436.34c-1.56-.46,9.68-4,12.85-4.82l110.33-28C510.75,400.2,526.59,399.05,533,401Z"/>
      <path class="cls-bordder-3" d="M539.9,381.93l151.85,45c3.12.93-10,5.65-16.35,7.26L574.73,459.77c-8.54,2.17-42.06,9.71-50.34,10.26-14.14,2.14-28.56,2.43-35.62.34L343.64,427.32c-3.12-.93,8.53-5.27,14.89-6.89L498.37,385C513.75,381,532.35,379.69,539.9,381.93Z"/>
      <path class="cls-bordder-4" d="M546.78,362.88,727.6,416.52c4.68,1.39-8.69,6.87-18.23,9.29L589.7,456.18c-7.68,1.95-52.29,12.4-59.74,12.9-16.54,2.88-34.13,3.48-42.36,1L312.82,418.28c-4.68-1.39,7.38-6.54,16.92-9l169.36-43C516.76,361.86,538.11,360.31,546.78,362.88Z"/>
      <path class="cls-bordder-5" d="M553.65,343.83l209.8,62.23c6.24,1.85-7.4,8.1-20.11,11.32L604.67,452.57c-6.83,1.73-62.53,15.1-69.15,15.54-18.94,3.64-39.7,4.55-49.09,1.76L282,409.23c-6.24-1.86,6.22-7.8,18.94-11l198.89-50.47C519.77,342.68,543.87,340.92,553.65,343.83Z"/>
      <path class="cls-bordder-6" d="M560.52,324.77,799.3,395.6c7.8,2.31-6.11,9.33-22,13.35L619.63,449c-6,1.52-72.76,17.79-78.55,18.18-21.35,4.4-45.27,5.6-55.83,2.47L251.17,400.17c-7.8-2.31,5.07-9.06,21-13.09l228.41-58C522.76,323.49,549.62,321.53,560.52,324.77Z"/>
      <path class="cls-bordder-7" d="M567.38,305.7l267.76,79.43c9.36,2.78-4.81,10.56-23.88,15.39L634.59,445.35c-5.12,1.3-83,20.48-88,20.81-23.75,5.16-50.84,6.67-62.57,3.19L220.33,391.12c-9.36-2.78,3.93-10.32,23-15.17L501.27,310.5C525.76,304.29,555.36,302.14,567.38,305.7Z"/>
      <path class="cls-bordder-8" d="M574.24,286.64l296.74,88c10.92,3.24-3.52,11.78-25.77,17.41L649.55,441.73c-4.27,1.09-93.23,23.18-97.37,23.46-26.15,5.91-56.41,7.72-69.3,3.9l-293.38-87c-10.93-3.24,2.77-11.59,25-17.23L502,291.88C528.75,285.1,561.1,282.74,574.24,286.64Z"/>
      <path class="cls-bordder-9" d="M581.1,267.57,906.81,364.2c12.48,3.7-2.22,13-27.65,19.45L664.5,438.12C661.09,439,561,464,557.73,464.21c-28.55,6.66-62,8.78-76,4.61L158.66,373c-12.49-3.7,1.62-12.85,27.06-19.3l317-80.44C531.74,265.9,566.84,263.35,581.1,267.57Z"/>
      <path class="cls-bordder-10" d="M587.91,248.47l354.7,105.21c14,4.17-.93,14.24-29.54,21.49L679.41,434.46c-2.56.65-113.7,28.56-116.18,28.73-31,7.42-67.55,9.84-82.77,5.33L127.77,363.9c-14-4.17.48-14.11,29.1-21.38L503.36,254.6C534.68,246.66,572.54,243.91,587.91,248.47Z"/>
      <path class="cls-bordder-11" d="M594.77,229.41,978.45,343.23c15.6,4.63.37,15.46-31.42,23.51L694.37,430.86c-1.7.43-123.93,31.25-125.59,31.36-33.35,8.18-73.12,10.91-89.51,6L96.94,354.85c-15.6-4.63-.67-15.37,31.13-23.44l376-95.42C537.68,227.48,578.28,224.52,594.77,229.41Z"/>
      <path class="cls-bordder-12" d="M601.64,210.36l412.65,122.41c17.16,5.09,1.67,16.69-33.3,25.55L709.33,427.25c-.85.22-134.17,33.95-135,34-35.75,8.93-78.68,12-96.24,6.75L66.11,345.8c-17.17-5.09-1.82-16.63,33.15-25.51L504.8,217.38C540.67,208.3,584,205.14,601.64,210.36Z"/>
      <path class="cls-bordder-13" d="M1014.94,349.9,724.29,423.65l-144.4,36.64c-38.16,9.69-84.26,13-103,7.47l-441.63-131c-18.72-5.55-3-17.89,35.19-27.57l435.05-110.4c38.15-9.67,84.26-13,103-7.47l441.63,131C1068.85,327.87,1053.09,340.23,1014.94,349.9Z"/>
    </g>
  </g>
  <g id="Glass">
    <path class="cls-bordder-14" d="M1015.73,195.63,725.08,269.39,580.67,306c-38.15,9.69-84.25,13-103,7.47l-441.63-131c-18.73-5.55-3-17.89,35.18-27.58L506.3,44.51c38.15-9.66,84.26-13,103-7.46l441.63,131C1069.64,173.61,1053.88,186,1015.73,195.63Z"/>
  </g>
  <g id="Back">
    <path class="cls-bordder-15" d="M1058.41,174.91V327.26a35,35,0,0,0-5.41-4.11c-4.55-2.94-12-4.9-21.53-7.33C1014.26,311.43,608.1,191,608.1,191A201.94,201.94,0,0,0,579,188.29c-10.44-.09-21,2.38-26.71,1.73C536.92,188.26,65.19,310.1,65.19,310.1S37,319.47,33,322.83a24.09,24.09,0,0,0-6,7.49V174.91s4.36-4.55,15.08-10.82C61.66,152.64,535.14,38.17,535.14,38.17l35-3.8,32.71,1,450.23,133.23Z"/>
  </g>
  <g id="Front">
    <path class="cls-bordder-16" d="M27.38,329.54V177.19a35,35,0,0,0,5.41,4.11c4.56,2.94,12,4.9,21.53,7.33C71.53,193,477.69,313.5,477.69,313.5a201.94,201.94,0,0,0,29.06,2.66c10.44.09,21-2.38,26.71-1.73,15.41,1.76,487.14-120.08,487.14-120.08s28.17-9.38,32.22-12.73a24.09,24.09,0,0,0,6-7.49V329.54s-4.36,4.55-15.07,10.82c-19.6,11.45-493.08,125.92-493.08,125.92l-35,3.8-32.72-1L32.74,335.88Z"/>
  </g>
</svg>
