<svg width="86" height="86" viewBox="0 0 86 86" fill="none" xmlns="http://www.w3.org/2000/svg">
<path d="M43 86C66.7482 86 86 66.7482 86 43C86 19.2518 66.7482 0 43 0C19.2518 0 0 19.2518 0 43C0 66.7482 19.2518 86 43 86Z" fill="#7255D0"/>
<path d="M43 40L69 24.444C68.5158 23.6949 67.8508 23.0788 67.0658 22.6518C66.2807 22.2249 65.4007 22.0008 64.5062 22H21.4938C20.5993 22.0008 19.7193 22.2249 18.9342 22.6518C18.1492 23.0788 17.4842 23.6949 17 24.444L43 40Z" fill="#dee1e2"/>
<path d="M43 44.0412C42.6351 44.0403 42.2773 43.9392 41.9646 43.7488L16 28V56.56C16 58.0028 16.5667 59.3865 17.5753 60.4067C18.584 61.4269 19.952 62 21.3785 62H64.6215C66.048 62 67.416 61.4269 68.4247 60.4067C69.4333 59.3865 70 58.0028 70 56.56V28L44.0421 43.7488C43.7275 43.9404 43.3672 44.0415 43 44.0412Z" fill="#dee1e2"/>
</svg>
