<svg width="86" height="86" viewBox="0 0 86 86" fill="none" xmlns="http://www.w3.org/2000/svg">
<path d="M86 43C86 66.7482 66.7482 86 43 86C19.2518 86 0 66.7482 0 43C0 19.2518 19.2518 0 43 0C66.7482 0 86 19.2518 86 43Z" fill="#7255D0"/>
<path fill-rule="evenodd" clip-rule="evenodd" d="M25.3678 20.8125C28.947 18.0315 32.0382 18.5222 33.5024 21.794C36.4308 27.6832 38.5458 30.6278 36.4308 32.918C32.5262 35.5354 29.7605 36.8441 31.2247 39.6252C34.1531 46.6595 39.8473 52.7122 46.6803 56.3112C49.2834 57.9471 50.7476 55.166 53.676 51.5671C56.1164 49.604 58.8821 51.7307 64.5763 55.166C67.6674 56.9655 67.8301 59.9101 64.9017 63.3455C47.8191 82.6489 5.03153 36.6806 25.3678 20.8125Z" fill="#dee1e2"/>
</svg>
