<svg xmlns="http://www.w3.org/2000/svg" xmlns:xlink="http://www.w3.org/1999/xlink" width="22.58" height="29.68" viewBox="0 0 22.58 29.68">
  <defs>
    <rect id="rect-1" width="22.58" height="29.68" x="0" y="0"/>
    <mask id="mask-2" maskContentUnits="userSpaceOnUse" maskUnits="userSpaceOnUse">
      <rect width="22.58" height="29.68" x="0" y="0" fill="black"/>
      <use fill="white" xlink:href="#rect-1"/>
    </mask>
  </defs>
  <g>
    <use fill="none" xlink:href="#rect-1"/>
    <g mask="url(#mask-2)">
      <path fill="rgb(233,237,238)" fill-rule="evenodd" d="M0 10.90944576C0 4.88459921 5.05389547 0 11.28999996 0c6.23529911 0 11.28999996 4.8845992 11.28999996 10.91061687 0 .08822155-.00120926.1764431-.0032215.26388455-.145813 5.90266228-5.14331628 10.6443901-11.28677846 10.6443901h-.01288986C5.04785347 21.81225396 0 16.93429185 0 10.90944577zm11.27711105 5.82810307c3.31305981-.01096726 5.9928341-2.61691475 5.99281502-5.82771301 0-3.21855736-2.69227219-5.8277135-6.01335811-5.8277135-3.32108593 0-6.01335812 2.60915614-6.01335812 5.8277135 0 1.54567337.63360357 3.0280342 1.76141405 4.1209545 1.12781095 1.0929184 2.6574359 1.70686341 4.25234652 1.7067585h.02014064z"/>
      <path fill="rgb(233,237,238)" fill-rule="evenodd" d="M11.3173902 16.73754945V29.68C-1.0710375 17.1618729.04027971 10.9094455.04027971 10.9094455H5.2834896c-.00010684 1.54574101.63344968 3.02820222 1.76127175 4.12120617 1.12782208 1.09300396 2.65750773 1.70700133 4.252489 1.70689778h.02013985z"/>
      <path fill="rgb(233,237,238)" fill-rule="evenodd" d="M11.23683078 29.68V16.73754945c3.31306067-.01096863 5.99283463-2.61691498 5.9928153-5.8277136h5.2842952c.01293085.08744816.02046313.17556648.02255663.26388469.05075244 1.30888363-.38346284 7.47660248-11.29966713 18.50627946z"/>
      <path fill="rgb(233,237,238)" fill-rule="evenodd" d="M4.26315832 10.90905476c0-3.77678395 3.13721705-6.84968663 7.03409243-6.88988829 3.89720678.03437614 7.03942442 3.10299349 7.04505491 6.88003874.0056305 3.77704477-3.12742424 6.8544488-7.02451277 6.89973688h-.02054214c-3.89687538-.04020119-7.03409243-3.11310387-7.03409243-6.88988733zm7.05423212 5.8284936c3.31306029-.01096726 5.99283362-2.61691476 5.99281454-5.82771254 0-3.21855736-2.69227218-5.8277135-6.01335668-5.8277135-3.32108689 0-6.0133586 2.60915614-6.0133586 5.8277135 0 1.54567289.63360358 3.02803373 1.76141406 4.12095403 1.12781047 1.0929184 2.65743541 1.7068634 4.25234699 1.7067585h.0201397z"/>
    </g>
  </g>
</svg>
